<?xml version="1.0" standalone="no"?><svg xmlns="http://www.w3.org/2000/svg" viewBox="0 0 1440 320"><path fill="#f3f4f5" fill-opacity="1" d="M0,288L24,288C48,288,96,288,144,277.3C192,267,240,245,288,234.7C336,224,384,224,432,224C480,224,528,224,576,218.7C624,213,672,203,720,213.3C768,224,816,256,864,240C912,224,960,160,1008,138.7C1056,117,1104,139,1152,170.7C1200,203,1248,245,1296,224C1344,203,1392,117,1416,74.7L1440,32L1440,320L1416,320C1392,320,1344,320,1296,320C1248,320,1200,320,1152,320C1104,320,1056,320,1008,320C960,320,912,320,864,320C816,320,768,320,720,320C672,320,624,320,576,320C528,320,480,320,432,320C384,320,336,320,288,320C240,320,192,320,144,320C96,320,48,320,24,320L0,320Z"></path></svg>